<svg xmlns="http://www.w3.org/2000/svg" viewBox="0 0 301.46 210.69"><defs><style>.cls-1{fill:#4b1979;}.cls-2{fill:none;stroke:#000;stroke-miterlimit:10;stroke-width:4px;}.cls-3{font-size:40px;fill:#7126b5;font-family:Poppins-Bold, Poppins;font-weight:700;}</style></defs><g id="Layer_2" data-name="Layer 2"><g id="Layer_1-2" data-name="Layer 1"><path class="cls-1" d="M97.69,32.06C95.88,31,88.26,39.3,69,67.2c2.66,2.32,5.69,5,9,8.15,6.31,5.92,8.92,8.84,11.57,8.14,1.74-.46,1.61-2.38,3.43-3.86,3.28-2.65,8.92-1.08,13.16.66a109.68,109.68,0,0,0,29.27,60.2,88.58,88.58,0,0,0,16.72-4.29c28.58-10.4,44.55-33.06,51.42-44.57C191.74,102,181,103.06,177,103.19c-20.9.68-39.37-17.46-46.27-34.27C126.22,58,126.21,46.75,123,46.63c-3.45-.12-3.62,12.67-13.11,17.51-4.66,2.38-11.72,3-15.17-.37C87.12,56.45,100.49,33.68,97.69,32.06Z"/><path class="cls-2" d="M107.54,17.92A223.63,223.63,0,0,0,85.26,70.63,44.59,44.59,0,0,0,93,75.77a46.24,46.24,0,0,0,18,5.15l9.86-24a101.15,101.15,0,0,0,51.43,65.14A107.72,107.72,0,0,0,185,113.15c7.21-5.85,18.15-14.73,25-29.66a67.91,67.91,0,0,0,6-28.29,43.35,43.35,0,0,1-30-3,42.36,42.36,0,0,1-16.74-15.34L189,35.06a45.25,45.25,0,0,0,.43-26.14l-48-6.43c4.95,9.71,1.83,21-5.57,25.71C127.09,33.8,112.85,30,107.54,17.92Z"/><path class="cls-1" d="M166.26,35.44a16.37,16.37,0,0,1,7.91-6.08c3.29-1.09,5.49-.34,9.08-1.92A18.13,18.13,0,0,0,189,23.35a19.7,19.7,0,0,1-1.39,10.39Z"/><text class="cls-3" transform="matrix(0.66, 0.76, -0.76, 0.66, 20.11, 124.43)">T</text><text class="cls-3" transform="translate(40.36 147.12) rotate(36.87)">H</text><text class="cls-3" transform="translate(69.85 168.05) rotate(24.06)">R</text><text class="cls-3" transform="matrix(0.97, 0.25, -0.25, 0.97, 99.39, 180.09)">I</text><text class="cls-3" transform="translate(116.28 184.48) rotate(6.09)">F</text><text class="cls-3" transform="matrix(1, -0.09, 0.09, 1, 144.52, 186.94)">T</text><text class="cls-3" transform="translate(175.16 183.75) rotate(-18.57)">O</text><text class="cls-3" transform="translate(211.36 170.34) rotate(-32.12)">R</text><text class="cls-3" transform="matrix(0.72, -0.69, 0.69, 0.72, 238.56, 152.33)">Z</text><text class="cls-3" transform="translate(260.54 130.78) rotate(-56.44)">O</text></g></g></svg>