<svg xmlns="http://www.w3.org/2000/svg" viewBox="0 0 413.76 135.39"><title>Asset 2</title><g id="Layer_2" data-name="Layer 2"><g id="TEXTS"><path d="M105.3,88.25A57.22,57.22,0,1,0,0,57.22a56.94,56.94,0,0,0,9.15,31Z" style="fill:#e2d4f0"/><path d="M57.23,20.09a32,32,0,1,0,32,32A32,32,0,0,0,57.23,20.09Zm0,55A22.93,22.93,0,1,1,80.15,52.11,22.93,22.93,0,0,1,57.23,75Z" style="fill:#260f44"/><path d="M82.41,51.63C72.63,51.63,69.32,67.8,57.23,68,45.14,67.8,41.82,51.63,32,51.63S15.62,68.33,1.66,71.34l6,26,6.57-3.28,5.2,41.33H95l5.2-41.33,6.57,3.28,6-26C98.83,68.33,92.26,51.63,82.41,51.63Z" style="fill:#7126b5"/><path d="M34.46,61.68a4,4,0,1,1-4-4A4,4,0,0,1,34.46,61.68Z" style="fill:#260f44"/><path d="M88,61.68a4,4,0,1,1-4-4A4,4,0,0,1,88,61.68Z" style="fill:#260f44"/><path d="M162.8,42.26v6.93h-8.43V73.52h-8.66V49.19h-8.34V42.26Z" style="fill:#7126b5"/><path d="M193.61,42.26V73.52H185V60.89H174.37V73.52h-8.7V42.26h8.7V54H185V42.26Z" style="fill:#7126b5"/><path d="M214.32,73.52,208,62h-.89V73.52h-8.69V42.26h13.73a14.4,14.4,0,0,1,6.38,1.3,9.12,9.12,0,0,1,4,3.6,10.17,10.17,0,0,1,1.32,5.17A9.13,9.13,0,0,1,222,58a9.6,9.6,0,0,1-5.21,3.38l7.11,12.14Zm-7.2-17.35h4.29q3.61,0,3.62-3.27a3.26,3.26,0,0,0-.91-2.43,3.73,3.73,0,0,0-2.71-.88h-4.29Z" style="fill:#7126b5"/><path d="M236,42.26V73.52h-8.7V42.26Z" style="fill:#7126b5"/><path d="M262,42.26v6.93H249.46v5.57h9.36v6.53h-9.36V73.52h-8.7V42.26Z" style="fill:#7126b5"/><path d="M289.11,42.26v6.93h-8.44V73.52H272V49.19h-8.34V42.26Z" style="fill:#7126b5"/><path d="M315.09,43.83a15,15,0,0,1,5.74,5.72,16.37,16.37,0,0,1,2.09,8.25,16.15,16.15,0,0,1-2.12,8.26A15,15,0,0,1,315,71.77a16,16,0,0,1-8,2.06,16.2,16.2,0,0,1-8-2.06,15,15,0,0,1-5.78-5.71,17.13,17.13,0,0,1,0-16.51A15.05,15.05,0,0,1,299,43.83a16.83,16.83,0,0,1,16.1,0ZM301.82,52a8.49,8.49,0,0,0-1.9,5.85,8.45,8.45,0,0,0,1.9,5.79A6.58,6.58,0,0,0,307,65.75a6.5,6.5,0,0,0,5.16-2.16,8.45,8.45,0,0,0,1.9-5.79A8.58,8.58,0,0,0,312.22,52a7.39,7.39,0,0,0-10.4,0Z" style="fill:#7126b5"/><path d="M342.7,73.52,336.39,62h-.89V73.52h-8.69V42.26h13.73a14.37,14.37,0,0,1,6.38,1.3,9.12,9.12,0,0,1,3.95,3.6,10.17,10.17,0,0,1,1.32,5.17A9.13,9.13,0,0,1,350.38,58a9.6,9.6,0,0,1-5.21,3.38l7.11,12.14Zm-7.2-17.35h4.29q3.61,0,3.62-3.27a3.26,3.26,0,0,0-.91-2.43,3.73,3.73,0,0,0-2.71-.88H335.5Z" style="fill:#7126b5"/><path d="M365,66.59h13.16v6.93H355.37V66.94l12.94-17.75H355.46V42.26h22.65v6.58Z" style="fill:#7126b5"/><path d="M405.76,43.83a14.88,14.88,0,0,1,5.74,5.72,17.2,17.2,0,0,1,0,16.51,15,15,0,0,1-5.76,5.71,16.66,16.66,0,0,1-16.05,0,15,15,0,0,1-5.78-5.71,17.13,17.13,0,0,1,0-16.51,15.05,15.05,0,0,1,5.78-5.72,16.81,16.81,0,0,1,16.09,0ZM392.5,52a8.49,8.49,0,0,0-1.9,5.85,8.45,8.45,0,0,0,1.9,5.79,7.3,7.3,0,0,0,10.37,0,8.45,8.45,0,0,0,1.9-5.79A8.58,8.58,0,0,0,402.9,52a7.39,7.39,0,0,0-10.4,0Z" style="fill:#7126b5"/><path d="M149,95.76a6.28,6.28,0,0,1,2.38,2.39,7.31,7.31,0,0,1,0,6.9,6.31,6.31,0,0,1-2.39,2.39,6.9,6.9,0,0,1-6.67,0,6.35,6.35,0,0,1-2.38-2.39,6.77,6.77,0,0,1-.88-3.46,6.7,6.7,0,0,1,.88-3.44,6.42,6.42,0,0,1,2.38-2.39,6.94,6.94,0,0,1,6.69,0Zm-5.82,3.09a4.58,4.58,0,0,0,0,5.48,3.51,3.51,0,0,0,4.93,0,4.53,4.53,0,0,0,0-5.47,3.13,3.13,0,0,0-2.46-1A3.17,3.17,0,0,0,143.15,98.85Z" style="fill:#260f44"/><path d="M173,108.17h-3.16l-5.28-8v8h-3.16V95.11h3.16l5.28,8.09V95.11H173Z" style="fill:#260f44"/><path d="M185.71,105.75h4.21v2.42h-7.37V95.11h3.16Z" style="fill:#260f44"/><path d="M201.93,95.11v13.06h-3.16V95.11Z" style="fill:#260f44"/><path d="M223.11,108.17H220l-5.29-8v8H211.5V95.11h3.16L220,103.2V95.11h3.16Z" style="fill:#260f44"/><path d="M235.84,97.62v2.74h4.41v2.38h-4.41v2.9h5v2.53h-8.13V95.11h8.13v2.51Z" style="fill:#260f44"/><path d="M270.46,95.11v2.51h-3.55v10.55h-3.18V97.62h-3.51V95.11Z" style="fill:#260f44"/><path d="M290.47,95.11v13.06h-3.18v-5.45h-5v5.45h-3.16V95.11h3.16v5.06h5V95.11Z" style="fill:#260f44"/><path d="M306.75,108.17l-2.83-4.93h-.72v4.93H300V95.11h5.39a6,6,0,0,1,2.63.53,3.78,3.78,0,0,1,1.61,1.47,4.33,4.33,0,0,1,.53,2.14,3.82,3.82,0,0,1-.78,2.42,4,4,0,0,1-2.28,1.36l3.1,5.14Zm-3.55-7.09h2a1.93,1.93,0,0,0,1.38-.42,1.88,1.88,0,0,0,0-2.45,1.91,1.91,0,0,0-1.37-.44h-2Z" style="fill:#260f44"/><path d="M322.34,95.11v13.06h-3.16V95.11Z" style="fill:#260f44"/><path d="M340.43,95.11v2.51h-5.36v2.86h4.14v2.41h-4.14v5.28h-3.16V95.11Z" style="fill:#260f44"/><path d="M358.83,95.11v2.51h-3.55v10.55H352.1V97.62h-3.51V95.11Z" style="fill:#260f44"/><path d="M370.71,95.11v13.06h-3.16V95.11Z" style="fill:#260f44"/><path d="M391.88,108.17h-3.16l-5.28-8v8h-3.16V95.11h3.16l5.28,8.09V95.11h3.16Z" style="fill:#260f44"/><path d="M411.62,96.18a5.14,5.14,0,0,1,2,3.25h-3.34a2.56,2.56,0,0,0-1-1.12,3.14,3.14,0,0,0-1.64-.41,3,3,0,0,0-2.4,1,3.87,3.87,0,0,0-.91,2.72,4,4,0,0,0,1,2.86,3.56,3.56,0,0,0,2.71,1,3.24,3.24,0,0,0,2-.62,3.36,3.36,0,0,0,1.2-1.76h-4v-2.27h6.63V104a6.45,6.45,0,0,1-1.18,2.12,6.16,6.16,0,0,1-2.08,1.59,6.56,6.56,0,0,1-2.89.61,6.9,6.9,0,0,1-3.46-.84,5.67,5.67,0,0,1-2.28-2.35,7.86,7.86,0,0,1,0-6.91,5.74,5.74,0,0,1,2.27-2.36,6.78,6.78,0,0,1,3.43-.84A6.54,6.54,0,0,1,411.62,96.18Z" style="fill:#260f44"/></g></g></svg>